<svg xmlns="http://www.w3.org/2000/svg" width="20" height="20" viewBox="0 0 20 20" fill="none">
  <path d="M19.0908 14.4728V17.2001C19.0919 17.4532 19.04 17.7038 18.9386 17.9358C18.8372 18.1678 18.6884 18.376 18.5018 18.5472C18.3153 18.7184 18.095 18.8487 17.8552 18.9298C17.6153 19.0109 17.3612 19.041 17.109 19.0182C14.3116 18.7143 11.6245 17.7584 9.26357 16.2273C7.06706 14.8316 5.20479 12.9693 3.80903 10.7728C2.27265 8.40115 1.31652 5.70096 1.01812 2.89096C0.995403 2.63957 1.02528 2.3862 1.10585 2.14699C1.18642 1.90777 1.31591 1.68795 1.48609 1.50153C1.65627 1.3151 1.8634 1.16615 2.09429 1.06417C2.32519 0.962177 2.57479 0.909383 2.82721 0.909146H5.55448C5.99567 0.904804 6.42339 1.06104 6.7579 1.34872C7.09242 1.63641 7.31092 2.03592 7.37267 2.47278C7.48778 3.34557 7.70126 4.20253 8.00903 5.02733C8.13134 5.35271 8.15781 5.70634 8.08531 6.04631C8.0128 6.38628 7.84436 6.69834 7.59994 6.94551L6.44539 8.10005C7.73954 10.376 9.62399 12.2605 11.8999 13.5546L13.0545 12.4001C13.3017 12.1556 13.6137 11.9872 13.9537 11.9147C14.2937 11.8422 14.6473 11.8687 14.9727 11.991C15.7975 12.2987 16.6544 12.5122 17.5272 12.6273C17.9688 12.6896 18.3721 12.9121 18.6604 13.2523C18.9487 13.5926 19.1019 14.0269 19.0908 14.4728Z" stroke="#3C515C" stroke-width="1.5" stroke-linecap="round" stroke-linejoin="round"/>
</svg>