<?xml version="1.0" encoding="utf-8"?><!--Generator: Adobe Illustrator 16.0.0, SVG Export Plug-In . SVG Version: 6.00 Build 0)--><!DOCTYPE svg PUBLIC "-//W3C//DTD SVG 1.1//EN" "http://www.w3.org/Graphics/SVG/1.1/DTD/svg11.dtd"><svg version="1.1" id="Слой_1" xmlns="http://www.w3.org/2000/svg" x="0px" y="0px" width="160px" height="44px" enable-background="new 0 0 160 44" xml:space="preserve"><polygon fill="#485E88" points="76.308,0.647 82.667,9.555 82.667,0.647 83.72,0.647 83.72,11.239 82.498,11.239 76.287,2.542
	76.287,11.239 75.234,11.239 75.234,0.647 "/><polygon fill="#485E88" points="91.343,0.647 91.343,1.679 86.837,1.679 86.837,5.406 91.343,5.406 91.343,6.459 86.837,6.459
	86.837,10.187 91.343,10.187 91.343,11.239 85.784,11.239 85.784,0.647 "/><polygon fill="#485E88" points="92.69,11.239 96.039,5.427 93.281,0.647 94.481,0.647 96.65,4.396 98.818,0.647 100.019,0.647
	97.239,5.427 100.588,11.239 99.388,11.239 96.65,6.48 93.892,11.239 "/><polygon fill="#485E88" points="104.968,1.679 104.968,11.239 103.937,11.239 103.937,1.679 101.367,1.679 101.367,0.647
	107.536,0.647 107.536,1.679 "/><path fill="#485E88" d="M84.078,25.917c-1.053,1.01-2.295,1.515-3.685,1.515c-1.495,0-2.78-0.525-3.833-1.579
	c-1.074-1.053-1.601-2.337-1.601-3.812c0-1.495,0.527-2.78,1.601-3.833c1.053-1.074,2.337-1.601,3.833-1.601
	c1.39,0,2.674,0.526,3.833,1.601l-0.779,0.695c-0.948-0.821-1.959-1.221-3.053-1.221c-1.2,0-2.232,0.421-3.096,1.263
	c-0.842,0.863-1.263,1.874-1.263,3.096c0,1.179,0.421,2.21,1.263,3.053c0.864,0.863,1.896,1.285,3.096,1.285
	c1.032,0,1.916-0.295,2.632-0.884v-3.18h1.053V25.917z"/><polygon fill="#485E88" points="91.575,16.735 91.575,17.789 87.089,17.789 87.089,21.516 91.575,21.516 91.575,22.568
	87.089,22.568 87.089,26.254 91.575,26.254 91.575,27.306 86.036,27.306 86.036,16.735 "/><polygon fill="#485E88" points="94.733,16.735 101.094,25.643 101.094,16.735 102.146,16.735 102.146,27.306 100.903,27.306
	94.691,18.631 94.691,27.306 93.639,27.306 93.639,16.735 "/><polygon fill="#485E88" points="109.747,16.735 109.747,17.789 105.263,17.789 105.263,21.516 109.747,21.516 109.747,22.568
	105.263,22.568 105.263,26.254 109.747,26.254 109.747,27.306 104.209,27.306 104.209,16.735 "/><path fill="#485E88" d="M114.865,22.716c0.483-0.084,0.905-0.316,1.264-0.674c0.484-0.484,0.715-1.074,0.715-1.769
	s-0.23-1.264-0.715-1.748c-0.358-0.379-0.78-0.59-1.264-0.695v-1.074c0.799,0.126,1.453,0.463,2,1.011
	c0.695,0.695,1.032,1.537,1.032,2.506c0,0.99-0.337,1.811-1.032,2.485c-0.484,0.484-0.926,0.779-1.327,0.864l2.401,3.685h-1.284
	l-1.79-2.78V22.716z M112.886,17.789v4.969h1.474c0.189,0,0.357,0,0.506-0.042v1.81l-0.442-0.715h-1.537v3.495h-1.054V16.735h2.906
	c0.043,0,0.084,0.021,0.127,0.021v1.074c-0.148-0.021-0.316-0.042-0.506-0.042H112.886z"/><path fill="#485E88" d="M124.383,21.832l-1.2-3.306v-1.79h0.463l3.854,10.571h-1.116l-1.621-4.443h-1.58v-1.032H124.383z
	 M123.183,18.525l-1.2,3.306h1.2v1.032h-1.579l-1.643,4.443h-1.115l3.874-10.571h0.463V18.525z"/><polygon fill="#485E88" points="131.228,17.789 131.228,27.306 130.174,27.306 130.174,17.789 127.626,17.789 127.626,16.735
	133.775,16.735 133.775,17.789 "/><rect x="135.354" y="16.735" fill="#485E88" width="1.053" height="10.571"/><path fill="#485E88" d="M143.63,16.588c1.495,0,2.78,0.526,3.833,1.601c1.052,1.053,1.579,2.337,1.579,3.833
	c0,1.474-0.527,2.759-1.579,3.833c-1.053,1.053-2.338,1.579-3.833,1.579V26.38c1.2,0,2.232-0.421,3.074-1.285
	c0.863-0.863,1.285-1.895,1.285-3.074c0-1.201-0.422-2.232-1.285-3.096c-0.842-0.842-1.874-1.284-3.074-1.284V16.588z
	 M143.608,16.588h0.021v1.053h-0.021c-1.2,0-2.231,0.442-3.073,1.284c-0.863,0.863-1.285,1.895-1.285,3.096
	c0,1.179,0.422,2.211,1.285,3.074c0.842,0.863,1.873,1.285,3.073,1.285h0.021v1.052h-0.021c-1.495,0-2.758-0.525-3.832-1.579
	c-1.053-1.074-1.579-2.358-1.579-3.833c0-1.496,0.526-2.78,1.579-3.833C140.851,17.114,142.113,16.588,143.608,16.588z"/><polygon fill="#485E88" points="151.822,16.735 158.202,25.643 158.202,16.735 159.234,16.735 159.234,27.306 158.013,27.306
	151.801,18.631 151.801,27.306 150.747,27.306 150.747,16.735 "/><path fill="#485E88" d="M83.446,41.247l0.779,0.695c-1.158,1.073-2.442,1.6-3.833,1.6c-1.495,0-2.78-0.547-3.833-1.6
	c-1.074-1.053-1.601-2.337-1.601-3.833c0-1.495,0.527-2.758,1.601-3.832c1.053-1.054,2.337-1.58,3.833-1.58
	c1.39,0,2.674,0.526,3.833,1.58l-0.779,0.716c-0.948-0.821-1.959-1.242-3.053-1.242c-1.2,0-2.232,0.441-3.096,1.284
	c-0.842,0.843-1.263,1.874-1.263,3.074c0,1.222,0.421,2.232,1.263,3.096c0.864,0.843,1.896,1.284,3.096,1.284
	C81.487,42.489,82.498,42.068,83.446,41.247z"/><polygon fill="#485E88" points="85.952,43.416 85.952,32.824 87.005,32.824 87.005,42.363 90.858,42.363 90.858,43.416 "/><rect x="92.564" y="32.824" fill="#485E88" width="1.053" height="10.592"/><polygon fill="#485E88" points="96.84,32.824 103.199,41.731 103.199,32.824 104.252,32.824 104.252,43.416 103.03,43.416
	96.818,34.718 96.818,43.416 95.766,43.416 95.766,32.824 "/><rect x="106.399" y="32.824" fill="#485E88" width="1.053" height="10.592"/><path fill="#485E88" d="M117.792,41.247l0.8,0.695c-1.157,1.073-2.442,1.6-3.832,1.6c-1.516,0-2.78-0.547-3.854-1.6
	c-1.053-1.053-1.579-2.337-1.579-3.833c0-1.495,0.526-2.758,1.579-3.832c1.073-1.054,2.338-1.58,3.854-1.58
	c1.39,0,2.675,0.526,3.832,1.58l-0.8,0.716c-0.927-0.821-1.938-1.242-3.032-1.242c-1.222,0-2.232,0.441-3.096,1.284
	c-0.843,0.843-1.284,1.874-1.284,3.074c0,1.222,0.441,2.232,1.284,3.096c0.863,0.843,1.874,1.284,3.096,1.284
	C115.854,42.489,116.865,42.068,117.792,41.247z"/><polygon fill="#BF1773" points="2.331,0.668 15.282,18.82 15.282,0.668 17.43,0.668 17.43,22.231 14.924,22.231 2.268,4.521
	2.268,22.231 0.141,22.231 0.141,0.668 "/><path fill="#BF1773" d="M38.741,19.389c-2.148,2.063-4.654,3.095-7.497,3.095c-3.053,0-5.665-1.095-7.812-3.243
	c-2.148-2.148-3.222-4.738-3.222-7.792c0-3.033,1.074-5.644,3.222-7.791c2.147-2.169,4.759-3.243,7.812-3.243
	c2.843,0,5.433,1.074,7.813,3.243l-1.6,1.432c-1.896-1.685-3.98-2.506-6.212-2.506c-2.443,0-4.548,0.864-6.275,2.59
	c-1.748,1.727-2.611,3.812-2.611,6.275c0,2.443,0.864,4.549,2.611,6.275c1.727,1.748,3.833,2.611,6.275,2.611
	c2.105,0,3.896-0.59,5.37-1.79v-6.549h2.127V19.389z"/><path fill="#BF1773" d="M58.556,17.81l1.6,1.453c-2.358,2.148-4.97,3.222-7.813,3.222c-3.053,0-5.665-1.095-7.813-3.243
	c-2.147-2.148-3.222-4.738-3.222-7.792c0-3.033,1.075-5.644,3.222-7.791c2.148-2.169,4.759-3.243,7.813-3.243
	c2.843,0,5.454,1.074,7.813,3.243l-1.6,1.432c-1.896-1.685-3.959-2.506-6.212-2.506c-2.442,0-4.548,0.864-6.275,2.59
	c-1.727,1.727-2.59,3.812-2.59,6.275c0,2.443,0.863,4.549,2.59,6.275c1.727,1.748,3.833,2.611,6.275,2.611
	C54.597,20.336,56.661,19.494,58.556,17.81z"/><path fill-rule="evenodd" clip-rule="evenodd" fill="#485E88" d="M27.074,39.098c0.147-0.441,0.21-0.904,0.147-1.389
	c-0.042-0.189-0.084-0.379-0.147-0.569V39.098L27.074,39.098z M27.074,40.489v-0.063c1.706-0.296,4.275-1.454,4.443-3.412
	c0.105-1.096-0.8-2-2.043-2.485c-0.378-0.126-0.779-0.231-1.179-0.337c1.495-0.315,3.201-0.063,4.148,1.243
	c0.021,0.021,0.021,0.021,0.042,0.042c0.189-0.232,0.421-0.442,0.695-0.652c1.284-0.948,3.433-1.644,5.349-0.169
	c-1.053-0.422-2.063-0.484-2.927-0.168c-2.169,0.757-3.075,3.495-1.601,5.348c0.505,0.632,1.242,1.138,2.169,1.433
	c4.317,1.389,8.697-3.096,10.718-6.023c0.843-1.221,1.664-2.463,2.632-3.6c2.359-2.802,6.191-5.055,10.634-6.255v1.748
	c-0.358,0.106-0.737,0.212-1.116,0.358v12.803c-0.505-0.188-1.011-0.378-1.538-0.61V28.106c-0.863,0.38-1.769,0.843-2.632,1.369
	v8.823c-0.526-0.315-1.032-0.674-1.516-1.032v-6.78c-0.758,0.548-1.432,1.138-2.042,1.77c-0.821,0.863-1.538,2-2.274,2.969
	c-0.4,0.526-0.758,1.031-1.095,1.496c-2.253,3.158-6.191,6.148-10.571,5.811c-2.042-0.146-4.949-1.158-5.686-3.158
	c-0.611,0.548-1.39,0.947-2.274,1.074C28.654,40.594,27.853,40.573,27.074,40.489z M23.158,43.142
	c0.231-0.084,0.463-0.189,0.674-0.316c0.674-0.357,1.432-0.568,2.042-1.031c0.505-0.464,0.421-1.222,0.758-1.77
	c0.189-0.294,0.337-0.609,0.442-0.927V37.14c-0.105-0.294-0.273-0.589-0.442-0.885c0.063,0.274,0.126,0.548,0.168,0.821
	c0.147,0.948-0.168,1.938-0.695,2.717c-0.273,0.4-0.21,0.906-0.442,1.307c-0.231,0.378-0.652,0.526-1.011,0.694
	c-0.484,0.189-0.968,0.399-1.495,0.484V43.142L23.158,43.142z M27.074,40.426v0.063c-0.063-0.021-0.126-0.021-0.168-0.021
	C26.948,40.447,27.011,40.447,27.074,40.426L27.074,40.426z M23.158,38.194v-0.632c0.315-0.296,0.526-0.674,0.652-1.138
	c0.168,0.274,0.253,0.674,0.19,0.97C23.916,37.814,23.6,38.129,23.158,38.194z M17.64,41.774c0.716,0.104,1.158,0.126,1.853,0
	c0.358-0.043,0.548,0.294,0.716,0.546c0.316,0.506,0.842,0.906,1.432,0.991c0.505,0.063,1.032,0,1.516-0.169v-0.863
	c-0.147,0.041-0.295,0.063-0.442,0.063c-0.8,0.043-1.643-0.315-2.043-1.052c0.232-0.169,0.464-0.358,0.548-0.633
	c0.084-0.189,0.063-0.399,0.042-0.589c-0.463,0.674-1.369,0.842-2.127,0.821c-2.527-0.127-5.37-3.391-5.58-5.728
	c-0.337,0.694-0.695,1.41-1.116,1.979C13.366,39.646,15.324,41.268,17.64,41.774L17.64,41.774z M23.158,37.562v0.632
	c-0.084,0-0.168,0-0.253,0c-0.189-0.021-0.379-0.064-0.589-0.147C22.652,37.94,22.926,37.772,23.158,37.562L23.158,37.562z
	 M9.828,33.266c-2.127-2.948-6.464-5.181-9.687-6.107v-1.727c4.338,1.158,8.107,3.348,10.487,6.064L9.828,33.266z"/><path fill-rule="evenodd" clip-rule="evenodd" fill="#26CCB9" d="M10.354,34.908c-0.758,1.327-1.979,2.549-3.411,3.58V31.75
	c-0.484-0.357-0.99-0.716-1.517-1.032v8.803c-0.863,0.505-1.769,0.969-2.632,1.369V29.328c-0.526-0.231-1.031-0.421-1.537-0.61V41.5
	c-0.4,0.127-0.758,0.253-1.137,0.357v1.728c5.602-1.495,10.234-4.696,12.192-8.529c0.864-1.706,1.664-4.464,3.032-5.811
	c3.222-3.16,8.065-1.18,10.361,2.252c10.34-5.686,16.236-4.442,19.521-0.8c0.695,0.759,1.137,1.369,1.643,2.315l1.032-1.389
	c-2.801-5.602-9.477-8.276-21.964-0.97c-3.369-5.032-9.35-5.285-12.214-2.104C12.166,30.276,11.492,32.886,10.354,34.908
	L10.354,34.908z M50.343,35.688c2.148,2.947,6.591,5.243,9.813,6.169v1.728c-3.096-0.821-5.875-2.169-8.086-3.854
	c-0.905-0.674-2.105-1.832-2.801-2.611L50.343,35.688z"/><rect x="67.063" y="0.647" fill-rule="evenodd" clip-rule="evenodd" fill="#485E88" width="1.032" height="42.938"/></svg>